<?xml version="1.0" standalone="no"?>
<!DOCTYPE svg PUBLIC "-//W3C//DTD SVG 20010904//EN"
 "http://www.w3.org/TR/2001/REC-SVG-20010904/DTD/svg10.dtd">
<svg version="1.0" xmlns="http://www.w3.org/2000/svg"
 width="300.000000pt" height="40.000000pt" viewBox="0 0 300.000000 40.000000"
 preserveAspectRatio="xMidYMid meet">

<g transform="translate(0.000000,40.000000) scale(0.100000,-0.100000)"
fill="#000000" stroke="none">
<path d="M2725 352 c-16 -4 -30 -12 -30 -19 0 -6 -4 -15 -9 -20 -5 -5 -6 -3
-2 5 4 6 2 12 -4 12 -6 0 -20 -21 -32 -47 -36 -83 -12 -185 53 -219 40 -20
118 -18 155 5 84 51 80 237 -5 270 -38 15 -92 20 -126 13z m96 -42 c33 -18 52
-68 46 -124 -3 -40 -11 -55 -36 -78 -40 -36 -72 -35 -113 1 -31 28 -33 33 -33
96 0 61 3 69 28 91 30 25 75 31 108 14z m-107 -239 c-2 -3 -12 3 -22 13 -16
17 -16 18 5 5 12 -7 20 -15 17 -18z"/>
<path d="M521 199 l1 -151 100 4 c95 3 101 4 124 31 28 32 31 73 9 104 -17 25
-80 45 -129 43 -55 -3 -56 -2 -56 45 l0 45 85 0 c69 0 85 3 85 15 0 12 -19 15
-110 15 l-111 0 2 -151z m162 -18 c34 -13 44 -47 21 -72 -13 -15 -31 -19 -76
-19 l-58 0 0 50 0 50 44 0 c25 0 56 -4 69 -9z m52 -91 c-10 -11 -22 -20 -28
-20 -5 0 1 9 14 20 31 25 37 25 14 0z"/>
<path d="M840 200 l0 -150 110 0 c103 0 110 1 110 20 0 19 -7 20 -90 20 l-90
0 0 50 0 50 80 0 c73 0 80 2 80 20 0 18 -7 20 -81 20 l-80 0 3 43 3 42 83 3
c64 2 82 6 82 17 0 12 -20 15 -105 15 l-105 0 0 -150z"/>
<path d="M1150 225 c0 -111 -2 -126 -17 -132 -38 -14 -43 -43 -7 -43 59 0 64
11 64 130 0 59 3 115 6 124 4 12 20 16 55 16 60 0 62 -4 57 -158 -3 -110 -3
-112 20 -112 22 0 22 1 22 150 l0 150 -100 0 -100 0 0 -125z"/>
<path d="M1420 335 c0 -11 12 -15 45 -15 l45 0 0 -135 0 -135 25 0 25 0 0 135
0 135 45 0 c33 0 45 4 45 15 0 12 -19 15 -115 15 -96 0 -115 -3 -115 -15z"/>
<path d="M1700 200 l0 -150 110 0 c103 0 110 1 110 20 0 18 -7 20 -85 20 l-85
0 0 50 0 50 75 0 c68 0 75 2 75 20 0 18 -7 20 -75 20 l-75 0 0 45 0 45 85 0
c69 0 85 3 85 15 0 12 -19 15 -110 15 l-110 0 0 -150z"/>
<path d="M1990 200 l0 -150 25 0 c24 0 25 3 25 60 l0 60 59 0 c49 0 65 4 88
24 24 21 28 31 27 72 -1 71 -23 84 -135 84 l-89 0 0 -150z m160 100 c51 -51 0
-99 -97 -91 -14 1 -19 92 -6 104 15 15 83 7 103 -13z"/>
<path d="M2280 200 c0 -143 1 -150 20 -150 19 0 20 7 20 127 0 157 13 154 50
-10 23 -105 27 -112 51 -115 25 -3 26 0 48 100 29 132 31 138 42 138 5 0 9
-52 9 -120 0 -118 0 -120 23 -120 22 0 22 0 19 150 l-3 150 -38 0 -39 0 -16
-67 c-31 -125 -37 -143 -44 -143 -4 0 -16 30 -26 68 -9 37 -22 84 -27 105 -9
35 -12 37 -49 37 l-40 0 0 -150z m257 -27 c-2 -21 -4 -4 -4 37 0 41 2 58 4 38
2 -21 2 -55 0 -75z"/>
</g>
</svg>
