<?xml version="1.0" encoding="UTF-8"?>
<!DOCTYPE svg PUBLIC "-//W3C//DTD SVG 1.0//EN" "http://www.w3.org/TR/2001/REC-SVG-20010904/DTD/svg10.dtd">
<!-- Creator: CorelDRAW 2020 (64-Bit) -->
<svg xmlns="http://www.w3.org/2000/svg" xml:space="preserve" width="512px" height="66px" version="1.0" style="shape-rendering:geometricPrecision; text-rendering:geometricPrecision; image-rendering:optimizeQuality; fill-rule:evenodd; clip-rule:evenodd"
viewBox="0 0 512 66.15"
 xmlns:xlink="http://www.w3.org/1999/xlink"
 xmlns:xodm="http://www.corel.com/coreldraw/odm/2003">
 <defs>
  <style type="text/css">
   <![CDATA[
    .fil1 {fill:#00A936}
    .fil0 {fill:#363636}
   ]]>
  </style>
 </defs>
 <g id="Слой_x0020_1">
  <metadata id="CorelCorpID_0Corel-Layer"/>
  <g id="_3250402944256">
   <path class="fil0" d="M12.12 42.83l28.29 0 0 9.42 -28.29 0 0 -9.42zm0 -25.6l25.59 0 0 9.43 -25.59 0 0 -9.43zm-12.12 49.84c11.88,0 29.59,0 39.06,0 20.2,0 16.16,-32.32 10.77,-35.02 0,-12.12 4.04,-30.98 -10.77,-30.98 -5.39,0 -25.59,0 -39.06,0l0 66z"/>
   <path class="fil0" d="M330 17.23l26.93 0 0 13.48 -26.93 0 0 -13.48zm26.93 29.64c6.74,0 13.47,-1.35 13.47,-12.12 0.02,-0.49 0,-18.4 0,-18.86 0,-17.51 -12.25,-14.81 -32.32,-14.82l-21.55 0 0 66 13.47 0 0 -20.2 10.77 0 13.47 20.2 16.16 0 -13.47 -20.2z"/>
   <polygon class="fil0" points="431.02,29.36 431.02,67.07 444.49,67.07 444.49,1.07 431.02,1.07 414.85,26.66 397.34,1.07 383.87,1.07 383.87,67.07 397.34,67.07 397.34,29.36 414.85,50.91 "/>
   <path class="fil0" d="M471.42 17.23l26.94 0 0 35.02 -26.94 0 0 -35.02zm32.33 49.84c4.04,0 8.08,-2.69 8.08,-16.16 -0.04,-9.95 0.4,-24.13 0,-32.33 -0.61,-12.75 -3.72,-17.3 -17.44,-17.23 -32.5,0.18 -36.9,-4.64 -36.79,23.97 0.14,35.6 -4.02,41.92 17.86,41.75 10.07,-0.08 18.86,0 28.29,0z"/>
   <polygon class="fil0" points="268.04,17.23 304.4,17.23 304.4,1.07 254.57,1.07 254.57,67.07 304.4,67.07 304.4,52.25 268.04,52.25 268.04,42.83 297.67,42.83 297.67,26.66 268.04,26.66 "/>
   <polygon class="fil0" points="115.83,17.23 115.83,1.07 67.34,1.07 67.34,67.07 115.83,67.07 115.83,52.25 80.81,52.25 80.81,42.83 109.1,42.83 109.1,26.66 80.81,26.66 80.81,17.23 "/>
   <polygon class="fil0" points="154.89,17.23 210.12,17.23 210.12,67.07 223.59,67.07 223.59,17.23 243.79,17.23 243.79,1.07 154.89,1.07 "/>
   <polygon class="fil0" points="129.3,67.07 198,67.07 198,52.25 142.77,52.25 142.77,1.07 129.2,1.14 "/>
   <path class="fil1" d="M154.89 44.85c15.03,0 30.76,2.68 36.86,-4.26 4.11,-4.68 6.14,-9.82 5.92,-16.29 -21.83,0 -40.94,-4.62 -42.78,20.55z"/>
  </g>
 </g>
</svg>
