<?xml version="1.0" encoding="UTF-8"?>
<!DOCTYPE svg PUBLIC "-//W3C//DTD SVG 1.0//EN" "http://www.w3.org/TR/2001/REC-SVG-20010904/DTD/svg10.dtd">
<!-- Creator: CorelDRAW 2020 (64-Bit) -->
<svg xmlns="http://www.w3.org/2000/svg" xml:space="preserve" width="100px" height="100px" version="1.0" style="shape-rendering:geometricPrecision; text-rendering:geometricPrecision; image-rendering:optimizeQuality; fill-rule:evenodd; clip-rule:evenodd"
viewBox="0 0 100 100"
 xmlns:xlink="http://www.w3.org/1999/xlink"
 xmlns:xodm="http://www.corel.com/coreldraw/odm/2003">
 <defs>
  <style type="text/css">
   <![CDATA[
    .fil0 {fill:#55B025}
   ]]>
  </style>
 </defs>
 <g id="Слой_x0020_1">
  <metadata id="CorelCorpID_0Corel-Layer"/>
  <path class="fil0" d="M0 9.09c0,3.03 0,78.79 0,81.82 0,3.03 6.25,9.09 9.37,9.09 3.13,0 78.13,0 81.26,0 3.12,0 9.37,-6.06 9.37,-9.09 0,-3.03 0,-78.79 0,-81.82 0,-3.03 -6.25,-9.09 -9.37,-9.09 -3.13,0 -78.13,0 -81.26,0 -3.12,0 -9.37,6.06 -9.37,9.09zm73.06 63c-17.3,8.05 -44.41,10.15 -56.81,-3.03 -0.63,-0.67 -5.68,-11.37 -6.25,-12.12 0.8,-0.21 2.07,-0.82 3.12,0 2.44,1.89 4.95,9.49 6.25,9.09 10.4,-3.16 9.55,-15.45 30.39,-11.11 12.26,2.55 25.24,13.48 40.87,10.45 -5.03,10.05 -10.77,14.82 -21.01,21 -13.4,8.09 -38.15,5.34 -47.12,-8.22 7.12,1.22 6.12,4.22 25.12,4.22 6.13,0 32,-7 25.44,-10.28zm-45.49 -44.19c17.29,-8.04 44.4,-10.15 56.8,3.04 0.63,0.67 5.69,11.37 6.26,12.12 -0.81,0.21 -2.07,0.82 -3.13,0 -2.43,-1.89 -4.95,-9.49 -6.25,-9.09 -10.39,3.16 -9.54,15.45 -30.39,11.11 -12.26,-2.55 -25.23,-13.48 -40.86,-10.45 5.02,-10.05 10.76,-14.82 21,-21 13.41,-8.09 38.16,-5.34 47.12,8.21 -7.12,-1.21 -6.12,-4.21 -25.12,-4.21 -6.13,0 -32,7 -25.43,10.27z"/>
 </g>
</svg>
