<?xml version="1.0" encoding="UTF-8"?>
<!DOCTYPE svg PUBLIC "-//W3C//DTD SVG 1.0//EN" "http://www.w3.org/TR/2001/REC-SVG-20010904/DTD/svg10.dtd">
<!-- Creator: CorelDRAW 2020 (64-Bit) -->
<svg xmlns="http://www.w3.org/2000/svg" xml:space="preserve" width="512px" height="512px" version="1.0" style="shape-rendering:geometricPrecision; text-rendering:geometricPrecision; image-rendering:optimizeQuality; fill-rule:evenodd; clip-rule:evenodd"
viewBox="0 0 512 512"
 xmlns:xlink="http://www.w3.org/1999/xlink"
 xmlns:xodm="http://www.corel.com/coreldraw/odm/2003">
 <defs>
  <style type="text/css">
   <![CDATA[
    .fil0 {fill:red}
   ]]>
  </style>
 </defs>
 <g id="Слой_x0020_1">
  <metadata id="CorelCorpID_0Corel-Layer"/>
  <path class="fil0" d="M0 256l256 256 28.44 -28.44 -227.55 -227.56 227.55 -227.56 -28.44 -28.44 -256 256zm284.44 -170.67l85.34 85.34 28.44 -28.45 -85.33 -85.33 -28.45 28.44zm-56.88 56.89l85.33 85.34 28.44 -28.45 -85.33 -85.33 -28.44 28.44zm-56.89 56.89l199.11 199.11 28.44 -28.44 -199.11 -199.11 -28.44 28.44zm-56.89 56.89l199.11 199.11 28.44 -28.44 -199.11 -199.11 -28.44 28.44zm227.55 0l85.34 85.33 85.33 -85.33 -85.33 -85.33 -85.34 85.33z"/>
 </g>
</svg>
